<svg width="23" height="27" viewBox="0 0 23 27" fill="none" xmlns="http://www.w3.org/2000/svg">
<path d="M22.8414 0.0199362V14.3936C22.8414 15.2807 22.7517 16.1579 22.5623 16.9952C22.343 18.0618 21.9842 19.0885 21.5057 20.0354C20.2896 22.4476 18.3259 24.4113 15.9137 25.6274C15.2857 25.9464 14.6279 26.2155 13.9401 26.4149C12.7738 26.7737 11.5478 26.9631 10.2719 26.9631H0.99182C0.981852 26.8235 0.971886 26.674 0.971886 26.5245C0.971886 25.4579 1.23105 24.4612 1.6796 23.574C1.77928 23.3747 1.88893 23.1753 2.01851 22.9859C3.16482 21.2116 5.16836 20.0354 7.451 20.0354H8.66708C8.72689 20.0454 8.7867 20.0454 8.8465 20.0454C8.90631 20.0454 8.96612 20.0454 9.02593 20.0354C12.8436 19.9457 15.9137 16.8158 15.9137 12.9682V6.48909C15.9137 5.42252 16.1729 4.42573 16.6214 3.53859C17.688 1.43537 19.8809 0 22.4028 0C22.5523 0 22.7018 0.00996833 22.8414 0.0199362Z" fill="#0341A7"/>
</svg>
