<svg width="28" height="22" viewBox="0 0 28 22" fill="none" xmlns="http://www.w3.org/2000/svg">
<path d="M27.7183 21.5258C27.7183 21.6753 27.7083 21.8249 27.6983 21.9644H13.5539C12.607 21.9644 11.68 21.8548 10.7928 21.6554C9.7761 21.4361 8.80922 21.0872 7.91211 20.6287C5.49988 19.4126 3.53621 17.449 2.32013 15.0367C2.03106 14.4686 1.79183 13.8805 1.60244 13.2624H1.59248C1.19376 12.0464 0.984436 10.7406 0.984436 9.39491V0.324151C1.13395 0.314183 1.28347 0.304214 1.43299 0.304214C2.28026 0.304214 3.09762 0.47367 3.84521 0.772706C3.98476 0.822545 4.11435 0.882351 4.24393 0.952126C6.41693 1.98878 7.91211 4.21162 7.91211 6.78333V7.96951C7.91211 11.8171 10.9822 14.947 14.7999 15.0367C14.8597 15.0467 14.9195 15.0467 14.9793 15.0467C15.0391 15.0467 15.0989 15.0467 15.1587 15.0367H21.2292C22.3655 15.0367 23.4321 15.3258 24.3591 15.8342C26.3626 16.9406 27.7183 19.0737 27.7183 21.5258Z" fill="#0341A7"/>
</svg>
