<svg width="24" height="27" viewBox="0 0 24 27" fill="none" xmlns="http://www.w3.org/2000/svg">
<path d="M23.1231 0.455559C23.1231 1.58193 22.834 2.64849 22.3257 3.5755C22.2559 3.69512 22.1861 3.8247 22.1064 3.94431C20.9501 5.73853 18.9366 6.93468 16.644 6.93468H14.9793C11.0819 6.93468 7.91211 10.1045 7.91211 14.0019V20.5209C7.91211 21.5675 7.66291 22.5643 7.21436 23.4315C6.15776 25.5447 3.96483 27 1.43299 27C1.28347 27 1.13395 26.99 0.984436 26.9801V12.5765C0.984436 11.789 1.05421 11.0115 1.20373 10.2639C1.41305 9.08774 1.8018 7.97133 2.32013 6.93468C3.53621 4.52245 5.49988 2.55878 7.91211 1.3427C8.61983 0.983855 9.37739 0.694788 10.1549 0.475495C11.2314 0.166491 12.3777 0.00700378 13.5539 0.00700378H23.1031C23.1131 0.156522 23.1231 0.306041 23.1231 0.455559Z" fill="#0341A7"/>
</svg>
