<svg width="27" height="22" viewBox="0 0 27 22" fill="none" xmlns="http://www.w3.org/2000/svg">
<path d="M26.8435 12.5765V21.9264C26.674 21.9363 26.5046 21.9463 26.3351 21.9463C25.5178 21.9463 24.7403 21.7968 24.0226 21.5177C23.8033 21.4379 23.594 21.3482 23.3846 21.2386C21.5406 20.3016 20.2148 18.5074 19.9158 16.3842V14.0019C19.9158 10.1045 16.746 6.93468 12.8486 6.93468H6.48909C5.39262 6.93468 4.35596 6.66554 3.44888 6.18709C1.3955 5.10059 0 2.93756 0 0.455559C0 0.306041 0.00996833 0.156522 0.0199362 0.00700378H14.274C15.3107 0.00700378 16.3174 0.136589 17.2743 0.375818C18.2013 0.595111 19.0885 0.924048 19.9158 1.3427C22.328 2.55878 24.2917 4.52245 25.5078 6.93468C25.8367 7.58259 26.1059 8.27037 26.3152 8.97809C26.6641 10.1144 26.8435 11.3305 26.8435 12.5765Z" fill="#0341A7"/>
</svg>
